<?xml version="1.0" standalone="no"?><!DOCTYPE svg PUBLIC "-//W3C//DTD SVG 1.1//EN" "http://www.w3.org/Graphics/SVG/1.1/DTD/svg11.dtd"><svg t="1677678662852" class="icon" viewBox="0 0 1024 1024" version="1.1" xmlns="http://www.w3.org/2000/svg" p-id="3065" id="mx_n_1677678662853" xmlns:xlink="http://www.w3.org/1999/xlink" width="200" height="200"><path d="M819.2 778.24H225.28a61.44 61.44 0 0 1-61.44-61.44V286.72a61.44 61.44 0 0 1 61.44-61.44h593.92a61.44 61.44 0 0 1 61.44 61.44v430.08a61.44 61.44 0 0 1-61.44 61.44z m-593.92-40.96l184.32-184.32-20.48-20.48-184.32 184.32z m593.92-471.04L532.48 532.48h-20.48L225.28 266.24l-20.48 40.96 307.2 286.72h20.48l307.2-286.72z m-163.84 266.24l-20.48 20.48 184.32 184.32 20.48-20.48z" fill="#000000" p-id="3066"></path></svg>