<?xml version="1.0" standalone="no"?><!DOCTYPE svg PUBLIC "-//W3C//DTD SVG 1.1//EN" "http://www.w3.org/Graphics/SVG/1.1/DTD/svg11.dtd"><svg t="1677678811314" class="icon" viewBox="0 0 1024 1024" version="1.1" xmlns="http://www.w3.org/2000/svg" p-id="4999" xmlns:xlink="http://www.w3.org/1999/xlink" width="200" height="200"><path d="M685.647744 551.499272h-44.716157c-16.395924 0-29.810771 13.414847-29.810772 29.810772s13.414847 29.810771 29.810772 29.810771h44.716157c16.395924 0 29.810771-13.414847 29.810771-29.810771-1.490539-17.886463-13.414847-29.810771-29.810771-29.810772zM685.647744 697.572052h-44.716157c-16.395924 0-29.810771 13.414847-29.810772 29.810772s13.414847 29.810771 29.810772 29.810771h44.716157c16.395924 0 29.810771-13.414847 29.810771-29.810771-1.490539-16.395924-13.414847-29.810771-29.810771-29.810772zM117.752547 430.765648l-2.981077-2.981077c-5.962154-5.962154-5.962154-20.86754-4.471616-35.772926h253.391558c1.490539 14.905386 0 28.320233-4.471616 35.772926-35.772926-5.962154-73.03639-8.943231-110.299854-8.943232-44.716157 0-87.941776 4.471616-131.167395 11.924309z" fill="#030000" p-id="5000"></path><path d="M866.002911 863.021834h-640.931586c-38.754003 0-70.055313-31.30131-70.055313-68.564774 0-19.377001 8.943231-37.263464 22.358078-49.187773l123.714702-208.675401c17.886463-29.810771 59.621543-53.659389 95.394469-53.659388-1.490539-4.471616-2.981077-8.943231-2.981078-13.414847v-102.847162c0-20.86754 14.905386-37.263464 32.791849-37.263464h7.452693v52.16885c0 20.86754 14.905386 37.263464 32.791849 37.263464h157.997088c17.886463 0 32.791849-16.395924 32.791849-37.263464v-44.716157-7.452693h7.452693c17.886463 0 32.791849 16.395924 32.791848 37.263464v102.847162c0 4.471616-1.490539 8.943231-2.981077 13.414847 35.772926 0 77.508006 23.848617 95.394469 53.659388l123.714702 208.675401c13.414847 11.924309 22.358079 29.810771 22.358078 49.187773 0 38.754003-31.30131 68.564774-70.055313 68.564774z" fill="#030000" p-id="5001"></path><path d="M977.793304 427.784571c-38.754003-5.962154-77.508006-8.943231-117.752547-8.943232-43.225619 0-84.960699 4.471616-125.20524 10.43377l-1.490539-1.490538c-5.962154-5.962154-5.962154-20.86754-4.471616-35.772926h253.391558c1.490539 14.905386 0 29.810771-4.471616 35.772926zM977.793304 360.710335H731.85444c0-2.981077 1.490539-4.471616 1.490538-4.471616 0-34.282387-28.320233-62.60262-62.60262-62.60262H420.331878c-34.282387 0-62.60262 28.320233-62.60262 62.60262 0 0 0 1.490539 1.490538 4.471616H113.280932c0-2.981077 1.490539-4.471616 1.490538-4.471616 0-90.922853 73.03639-163.959243 163.959243-165.449782h533.61281c90.922853 0 163.959243 73.03639 163.959243 163.959243 1.490539 1.490539 1.490539 2.981077 1.490538 5.962155zM450.142649 772.098981h-44.716157c-16.395924 0-29.810771 13.414847-29.810771 29.810772s13.414847 29.810771 29.810771 29.810771h44.716157c16.395924 0 29.810771-13.414847 29.810772-29.810771 0-17.886463-13.414847-29.810771-29.810772-29.810772zM685.647744 624.535662h-44.716157c-16.395924 0-29.810771 13.414847-29.810772 29.810772s13.414847 29.810771 29.810772 29.810771h44.716157c16.395924 0 29.810771-13.414847 29.810771-29.810771-1.490539-16.395924-13.414847-29.810771-29.810771-29.810772zM567.895197 624.535662h-44.716158c-16.395924 0-29.810771 13.414847-29.810771 29.810772s13.414847 29.810771 29.810771 29.810771h44.716158c16.395924 0 29.810771-13.414847 29.810771-29.810771s-13.414847-29.810771-29.810771-29.810772zM567.895197 697.572052h-44.716158c-16.395924 0-29.810771 13.414847-29.810771 29.810772s13.414847 29.810771 29.810771 29.810771h44.716158c16.395924 0 29.810771-13.414847 29.810771-29.810771s-13.414847-29.810771-29.810771-29.810772zM567.895197 551.499272h-44.716158c-16.395924 0-29.810771 13.414847-29.810771 29.810772s13.414847 29.810771 29.810771 29.810771h44.716158c16.395924 0 29.810771-13.414847 29.810771-29.810771 0-17.886463-13.414847-29.810771-29.810771-29.810772zM567.895197 772.098981h-44.716158c-16.395924 0-29.810771 13.414847-29.810771 29.810772s13.414847 29.810771 29.810771 29.810771h44.716158c16.395924 0 29.810771-13.414847 29.810771-29.810771 0-17.886463-13.414847-29.810771-29.810771-29.810772zM685.647744 772.098981h-44.716157c-16.395924 0-29.810771 13.414847-29.810772 29.810772s13.414847 29.810771 29.810772 29.810771h44.716157c16.395924 0 29.810771-13.414847 29.810771-29.810771-1.490539-17.886463-13.414847-29.810771-29.810771-29.810772zM450.142649 697.572052h-44.716157c-16.395924 0-29.810771 13.414847-29.810771 29.810772s13.414847 29.810771 29.810771 29.810771h44.716157c16.395924 0 29.810771-13.414847 29.810772-29.810771s-13.414847-29.810771-29.810772-29.810772zM450.142649 551.499272h-44.716157c-16.395924 0-29.810771 13.414847-29.810771 29.810772s13.414847 29.810771 29.810771 29.810771h44.716157c16.395924 0 29.810771-13.414847 29.810772-29.810771 0-17.886463-13.414847-29.810771-29.810772-29.810772zM450.142649 624.535662h-44.716157c-16.395924 0-29.810771 13.414847-29.810771 29.810772s13.414847 29.810771 29.810771 29.810771h44.716157c16.395924 0 29.810771-13.414847 29.810772-29.810771s-13.414847-29.810771-29.810772-29.810772z" fill="#030000" p-id="5002"></path></svg>